<svg xmlns="http://www.w3.org/2000/svg" viewBox="0 0 64 64" width="64" height="64"><g class="nc-icon-wrapper" stroke="none" fill="#111111"><path d="M61.707,19.293l-14-14a1,1,0,0,0-1.414,0L43.586,8H37.447a12.992,12.992,0,0,0-9.257,3.845L17.875,22.638a3.365,3.365,0,0,0,4.287,5.132L33.5,20.276a9.7,9.7,0,0,0,6.841,2.713,9.388,9.388,0,0,0,5.436-1.477L56.137,32.224s1.852-4.453,1.852-7.8l3.718-3.718A1,1,0,0,0,61.707,19.293Z" fill="#111111"></path> <path data-color="color-2" d="M56.9,35.874,46.654,25.343l-1.347-1.422a12.018,12.018,0,0,1-4.964,1.068,11.8,11.8,0,0,1-6.986-2.219L23.265,29.438a5.372,5.372,0,0,1-6.751-.682,5.394,5.394,0,0,1-.084-7.5L26.744,10.463a15.468,15.468,0,0,1,2-1.673A17.124,17.124,0,0,0,23.688,8H20.414L17.707,5.293a1,1,0,0,0-1.414,0l-14,14a1,1,0,0,0,0,1.414l3.642,3.642a18.071,18.071,0,0,0,.834,8.335,6.8,6.8,0,0,1,9.838,4.644,6.871,6.871,0,0,1,5.622,5.558,6.817,6.817,0,0,1,5.353,4.8A6.9,6.9,0,0,1,32.8,58.465a4.861,4.861,0,0,0,8.081-3.422,4.882,4.882,0,0,0,6.793-4.589,4.895,4.895,0,0,0,6-6.453,4.747,4.747,0,0,0,3.345-1.563A4.806,4.806,0,0,0,56.9,35.874Z"></path> <path d="M30.564,51.109A4.865,4.865,0,0,0,27.1,49.674a4.915,4.915,0,0,0-1.238.177,4.851,4.851,0,0,0-5.577-5.022,4.88,4.88,0,0,0-5.6-5.54,4.656,4.656,0,0,0,.057-.647,4.765,4.765,0,0,0-1.483-3.416,4.816,4.816,0,0,0-6.749.114l-.582.6a4.795,4.795,0,0,0,3.32,8.137l.121,0c.081,0,.158-.019.238-.023a4.865,4.865,0,0,0,6.19,5.82c0,.027-.008.052-.008.079a4.9,4.9,0,0,0,4.9,4.9,4.922,4.922,0,0,0,1.018-.111c-.009.12-.035.237-.035.359a4.9,4.9,0,0,0,8.365,3.464l.525-.525A4.905,4.905,0,0,0,30.564,51.109Z" fill="#111111"></path></g></svg>